<svg width="512" height="512" viewBox="0 0 32 32" fill="none" xmlns="http://www.w3.org/2000/svg">
  <!-- CartZe. Source for icon-192.png and icon-512.png — re-render rather than
       re-draw. Same basket as components/brand/Brand.tsx; if one changes the
       other has to. -->
  <path d="M0 8.42105C0 3.77023 3.77023 0 8.42105 0H23.5789C28.2298 0 32 3.77023 32 8.42105V23.5789C32 28.2298 28.2298 32 23.5789 32H8.42105C3.77023 32 0 28.2298 0 23.5789V8.42105Z" fill="#465FFF"/>
  <path d="M8 9.4h2.1l1 3m0 0 1.7 6.2a1.6 1.6 0 0 0 1.55 1.2h6.3a1.6 1.6 0 0 0 1.55-1.2l1.25-4.6a1.1 1.1 0 0 0-1.06-1.4H11.1"
        stroke="white" stroke-width="1.7" stroke-linecap="round" stroke-linejoin="round" fill="none"/>
  <circle cx="14.4" cy="23.2" r="1.5" fill="white"/>
  <circle cx="21.4" cy="23.2" r="1.5" fill="white"/>
</svg>
